<svg version="1.1" class="coveo-icon-for-email-svg" xmlns="http://www.w3.org/2000/svg" xmlns:xlink="http://www.w3.org/1999/xlink" x="0px" y="0px"
	 viewBox="0 0 52 36" enable-background="new 0 0 52 36" xml:space="preserve">
	<g fill="currentColor">
		<path d="M50,0H2C0.896,0,0,0.896,0,2v32c0,1.104,0.896,2,2,2h48c1.104,0,2-0.896,2-2V2C52,0.896,51.104,0,50,0z M44.476,4
			L26,19.396L7.524,4H44.476z M4,32V6.27l20.72,17.266C25.09,23.846,25.545,24,26,24c0.455,0,0.91-0.154,1.28-0.464L48,6.27V32H4z"/>
	</g>
</svg>
