<?xml version="1.0" encoding="utf-8"?>
<!-- Generator: Adobe Illustrator 21.1.0, SVG Export Plug-In . SVG Version: 6.00 Build 0)  -->
<svg version="1.1" xmlns="http://www.w3.org/2000/svg" xmlns:xlink="http://www.w3.org/1999/xlink" x="0px" y="0px"
	 viewBox="0 0 34.185 27.97" xml:space="preserve">
    <path fill="currentColor" d="M10.09,2.619c1.054,0,1.958,0.89,1.958,2.043s-0.904,2.043-1.958,2.043s-1.958-0.89-1.958-2.043
        S9.036,2.619,10.09,2.619z M10.04,0C8.032,0,6.325,1.414,5.773,3.352H1.205C0.502,3.352,0,3.928,0,4.662s0.552,1.309,1.255,1.309
        h4.568c0.502,1.938,2.259,3.352,4.267,3.352c2.058,0,3.765-1.414,4.317-3.352H32.93c0.703,0,1.255-0.576,1.255-1.309
        s-0.552-1.309-1.255-1.309H14.407C13.805,1.414,12.098,0,10.04,0z"/>

    <path fill="currentColor" d="M25.2,11.942c1.054,0,1.958,0.89,1.958,2.043s-0.904,2.043-1.958,2.043c-1.054,0-1.958-0.89-1.958-2.043
        S24.095,11.942,25.2,11.942z M25.149,9.323c-2.008,0-3.715,1.414-4.267,3.352H1.255C0.502,12.675,0,13.251,0,13.985
        s0.552,1.309,1.255,1.309h19.628c0.502,1.938,2.259,3.352,4.267,3.352c2.058,0,3.765-1.414,4.317-3.352h3.464
        c0.703,0,1.255-0.576,1.255-1.309s-0.552-1.309-1.255-1.309h-3.464C28.914,10.737,27.207,9.323,25.149,9.323z"/>
    <path fill="currentColor" d="M16.114,21.265c1.054,0,1.958,0.89,1.958,2.043s-0.904,2.043-1.958,2.043c-1.054,0-1.958-0.89-1.958-2.043
        C14.206,22.156,15.059,21.265,16.114,21.265z M16.063,18.646c-2.008,0-3.715,1.414-4.267,3.352H1.255
        C0.502,21.999,0,22.575,0,23.308s0.552,1.309,1.255,1.309h10.592c0.502,1.938,2.259,3.352,4.267,3.352
        c2.058,0,3.765-1.414,4.317-3.352H32.93c0.703,0,1.255-0.576,1.255-1.309s-0.552-1.309-1.255-1.309h-12.55
        C19.828,20.061,18.122,18.646,16.063,18.646z"/>
</svg>