<?xml version="1.0" encoding="utf-8"?>
<!-- Generator: Adobe Illustrator 21.1.0, SVG Export Plug-In . SVG Version: 6.00 Build 0)  -->
<svg version="1.1" xmlns="http://www.w3.org/2000/svg" xmlns:xlink="http://www.w3.org/1999/xlink" x="0px" y="0px"
	 viewBox="0 0 80 77.271" enable-background="new 0 0 80 77.271" xml:space="preserve">
<g>
	<g>
		<path fill="currentColor" d="M32.519,58.695c0.009-1.295,0.133-2.561,0.349-3.795l-11.51,11.899c-3.597,3.719-9.214,3.678-12.757-0.093
			c-3.543-3.771-3.5-9.663,0.098-13.382L48.69,11.981c5.971-6.174,15.38-6.105,21.261,0.155c5.881,6.26,5.808,16.13-0.163,22.303
			l-4.076,4.213c1.861,0.964,3.573,2.174,5.089,3.592l3.206-3.314c8.271-8.551,8.373-22.554,0.228-31.224
			c-8.145-8.671-21.495-8.768-29.765-0.217L4.479,48.832c-5.898,6.097-5.971,16.121-0.163,22.303
			c5.808,6.182,15.364,6.252,21.261,0.155l7.44-7.692C32.683,62.017,32.507,60.378,32.519,58.695z"/>
		<path fill="currentColor" d="M65.666,16.565c-3.47-3.693-9.233-3.735-12.757-0.093L18.632,51.908c-0.783,0.787-1.102,1.956-0.834,3.058
			c0.268,1.102,1.081,1.967,2.127,2.265c1.046,0.298,2.165-0.02,2.927-0.831L57.13,20.963c1.224-1.265,3.047-1.252,4.252,0.031
			c1.206,1.283,1.192,3.196-0.033,4.461L50.567,36.602c1.57-0.33,3.198-0.503,4.868-0.491c1.306,0.01,2.584,0.135,3.828,0.355
			l6.306-6.52C69.092,26.305,69.137,20.259,65.666,16.565z"/>
	</g>
	<g>
		<g>
			<path class="coveo-icon-x" fill="currentColor" d="M67.408,68.999c1.171,1.171,1.017,2.912-0.151,4.083c-1.171,1.175-2.999,1.239-4.17,0.07
				l-9.841-9.846l-9.836,9.834c-1.17,1.175-2.959,1.065-4.129-0.106c-1.17-1.163-1.287-2.946-0.117-4.116l9.847-9.846l-9.871-9.871
				c-1.168-1.17-1.192-3.088-0.022-4.258c1.17-1.172,3.099-1.135,4.264,0.035l9.864,9.859l9.893-9.892
				c1.171-1.172,2.971-1.078,4.14,0.091c1.17,1.167,1.292,2.944,0.124,4.114l-9.923,9.921L67.408,68.999z"/>
		</g>
	</g>
</g>
</svg>
